<mxfile host="65bd71144e">
    <diagram id="GmNPAb-Ntr7qnRrDRdi5" name="Page-1">
        <mxGraphModel dx="1179" dy="757" grid="1" gridSize="10" guides="1" tooltips="1" connect="1" arrows="1" fold="1" page="1" pageScale="1" pageWidth="850" pageHeight="1100" math="0" shadow="0">
            <root>
                <mxCell id="0"/>
                <mxCell id="1" parent="0"/>
                <mxCell id="8" value="" style="rounded=0;whiteSpace=wrap;html=1;fillColor=#e51400;fontColor=#ffffff;strokeColor=#B20000;" vertex="1" parent="1">
                    <mxGeometry x="270" y="50" width="20" height="60" as="geometry"/>
                </mxCell>
                <mxCell id="2" value="" style="rounded=0;whiteSpace=wrap;html=1;fillColor=#fa6800;fontColor=#000000;strokeColor=#C73500;" vertex="1" parent="1">
                    <mxGeometry x="160" y="110" width="20" height="60" as="geometry"/>
                </mxCell>
                <mxCell id="3" value="" style="rounded=0;whiteSpace=wrap;html=1;fillColor=#fa6800;fontColor=#000000;strokeColor=#C73500;" vertex="1" parent="1">
                    <mxGeometry x="190" y="110" width="20" height="60" as="geometry"/>
                </mxCell>
                <mxCell id="5" value="" style="endArrow=classic;html=1;" edge="1" parent="1">
                    <mxGeometry width="50" height="50" relative="1" as="geometry">
                        <mxPoint x="150" y="140" as="sourcePoint"/>
                        <mxPoint x="320" y="80" as="targetPoint"/>
                        <Array as="points">
                            <mxPoint x="240" y="140"/>
                            <mxPoint x="240" y="80"/>
                        </Array>
                    </mxGeometry>
                </mxCell>
                <mxCell id="6" value="Encoder" style="text;html=1;strokeColor=none;fillColor=none;align=center;verticalAlign=middle;whiteSpace=wrap;rounded=0;" vertex="1" parent="1">
                    <mxGeometry x="150" y="60" width="70" height="30" as="geometry"/>
                </mxCell>
                <mxCell id="10" value="TD" style="rounded=0;whiteSpace=wrap;html=1;" vertex="1" parent="1">
                    <mxGeometry x="320" y="70" width="20" height="20" as="geometry"/>
                </mxCell>
                <mxCell id="11" value="" style="rounded=0;whiteSpace=wrap;html=1;fillColor=#e3c800;fontColor=#000000;strokeColor=#B09500;" vertex="1" parent="1">
                    <mxGeometry x="270" y="150" width="20" height="70" as="geometry"/>
                </mxCell>
                <mxCell id="13" value="" style="endArrow=classic;html=1;" edge="1" parent="1">
                    <mxGeometry width="50" height="50" relative="1" as="geometry">
                        <mxPoint x="150" y="140" as="sourcePoint"/>
                        <mxPoint x="320" y="190" as="targetPoint"/>
                        <Array as="points">
                            <mxPoint x="240" y="140"/>
                            <mxPoint x="240" y="190"/>
                        </Array>
                    </mxGeometry>
                </mxCell>
                <mxCell id="14" value="PD" style="rounded=0;whiteSpace=wrap;html=1;" vertex="1" parent="1">
                    <mxGeometry x="320" y="180" width="20" height="20" as="geometry"/>
                </mxCell>
                <mxCell id="16" value="" style="rounded=0;whiteSpace=wrap;html=1;fillColor=#e51400;fontColor=#ffffff;strokeColor=#B20000;" vertex="1" parent="1">
                    <mxGeometry x="270" y="410" width="20" height="60" as="geometry"/>
                </mxCell>
                <mxCell id="17" value="" style="rounded=0;whiteSpace=wrap;html=1;fillColor=#fa6800;fontColor=#000000;strokeColor=#C73500;" vertex="1" parent="1">
                    <mxGeometry x="160" y="410" width="20" height="60" as="geometry"/>
                </mxCell>
                <mxCell id="18" value="" style="rounded=0;whiteSpace=wrap;html=1;fillColor=#fa6800;fontColor=#000000;strokeColor=#C73500;" vertex="1" parent="1">
                    <mxGeometry x="190" y="410" width="20" height="60" as="geometry"/>
                </mxCell>
                <mxCell id="19" value="" style="endArrow=classic;html=1;" edge="1" parent="1">
                    <mxGeometry width="50" height="50" relative="1" as="geometry">
                        <mxPoint x="150" y="440" as="sourcePoint"/>
                        <mxPoint x="320" y="440" as="targetPoint"/>
                        <Array as="points">
                            <mxPoint x="240" y="440"/>
                        </Array>
                    </mxGeometry>
                </mxCell>
                <mxCell id="20" value="Encoder" style="text;html=1;strokeColor=none;fillColor=none;align=center;verticalAlign=middle;whiteSpace=wrap;rounded=0;" vertex="1" parent="1">
                    <mxGeometry x="150" y="360" width="70" height="30" as="geometry"/>
                </mxCell>
                <mxCell id="21" value="TD" style="rounded=0;whiteSpace=wrap;html=1;" vertex="1" parent="1">
                    <mxGeometry x="320" y="430" width="20" height="20" as="geometry"/>
                </mxCell>
                <mxCell id="22" value="" style="rounded=0;whiteSpace=wrap;html=1;fillColor=#e3c800;fontColor=#000000;strokeColor=#B09500;" vertex="1" parent="1">
                    <mxGeometry x="270" y="520" width="20" height="60" as="geometry"/>
                </mxCell>
                <mxCell id="24" value="" style="endArrow=classic;html=1;" edge="1" parent="1">
                    <mxGeometry width="50" height="50" relative="1" as="geometry">
                        <mxPoint x="150" y="440" as="sourcePoint"/>
                        <mxPoint x="320" y="550" as="targetPoint"/>
                        <Array as="points">
                            <mxPoint x="240" y="440"/>
                            <mxPoint x="240" y="550"/>
                        </Array>
                    </mxGeometry>
                </mxCell>
                <mxCell id="25" value="PD" style="rounded=0;whiteSpace=wrap;html=1;" vertex="1" parent="1">
                    <mxGeometry x="320" y="540" width="20" height="20" as="geometry"/>
                </mxCell>
                <mxCell id="26" value="" style="rounded=0;whiteSpace=wrap;html=1;fillColor=#6d8764;fontColor=#ffffff;strokeColor=#3A5431;" vertex="1" parent="1">
                    <mxGeometry x="270" y="300" width="20" height="60" as="geometry"/>
                </mxCell>
                <mxCell id="27" value="" style="rounded=0;whiteSpace=wrap;html=1;fillColor=#6d8764;fontColor=#ffffff;strokeColor=#3A5431;" vertex="1" parent="1">
                    <mxGeometry x="300" y="300" width="20" height="60" as="geometry"/>
                </mxCell>
                <mxCell id="28" value="" style="endArrow=classic;html=1;entryX=0;entryY=0.5;entryDx=0;entryDy=0;" edge="1" parent="1" target="29">
                    <mxGeometry width="50" height="50" relative="1" as="geometry">
                        <mxPoint x="150" y="440" as="sourcePoint"/>
                        <mxPoint x="340" y="330" as="targetPoint"/>
                        <Array as="points">
                            <mxPoint x="240" y="440"/>
                            <mxPoint x="240" y="330"/>
                        </Array>
                    </mxGeometry>
                </mxCell>
                <mxCell id="29" value="" style="shape=image;verticalLabelPosition=bottom;labelBackgroundColor=default;verticalAlign=top;aspect=fixed;imageAspect=0;image=data:image/png,iVBORw0KGgoAAAANSUhEUgAAAY4AAAFJCAYAAACM6cpwAAAAAXNSR0IArs4c6QAAAARnQU1BAACxjwv8YQUAAAAJcEhZcwAAEnQAABJ0Ad5mH3gAAFXVSURBVHhe7b1nk1zntt/337lzmhwwwCAQBAgw8/DEe86xrq7lK7lKqrJsV7nKlq1yuexPcb+FXjmUXtqSXbKrVAo3ncxDEiByngEm5+ncvfP2Wrt7SN5zGNBET+ie9SMfdE93T+jde6/fs56oJPREpIY6LKRgwIQgCIIgfBNK1sxHhpdACeOkjkz3YUEQBEH4apRiYjRK2GlMKWeRJ30IgiAIwjehlBJjkUXimFbOoSDiEARBEL6FWBwJO9MVx0j3YUEQBEH4atTurSAIgiC8FCIOQRAEoSdEHIIgCEJPiDgEQRCEnhBxCIIgCD0h4hAEQRB6QsQhCIIg9ISIQxAEQegJEYcgCILQEyIOQRAEoSdEHIIgCEJPiDgEQRCEnhBxCIIgCD0h4hAEQRB6QsQhCIIg9ISIQxAEQegJEYcgCILQEyIOQRAEoSdEHIIgCEJPiDgEQRCEnhBxCIIgCD0h4hAEQRB6QsQhCIIg9ISIQxAEQegJEYdwSCj0f7eodJpx0bhogN4tho7I7BarW+g+Px6/Lv6+7s8QBOHEoJQSY1HCzmBaOYcCRroPC8J3gYM83yj0f0cYCgvgy8Kg20hXERoHt0qn0FORpkBvh9BbIRTHg0oFroeICoIAURTRi6gIgnCsiDiEb+egxt+VQhTfxo90H+P/KaB3haFQlqCSLBQulD2oVBTTADiboFvOKoKEjpBKkFThJ1QEJgsEsCoBrLIPtWFDrdsIW93i+Qj8sOONg8Lwr/38a/onvh9/IQjCISHiEL4eFgaLwDBiAYQpkwK9BS+rwsuQKtIUyFOUIRgBDD1AQvfjktQ9pKkk4/v8eAhLj8gZEb1OhUZFpexDoawDcVHjbCOiu0o7gNr24VBxbQ8VW6diomxbKDsJtOi+0ybDtOnntDlDieiWS0DFhULfE7kOIhKNIAiHg4hD+GriTKLTN6Emk1BTCfgjmbi0JjS0JjUEoz7CEZJFykU64SJn2ShYbRSNFkbMJop6EwWthbxmI0clo5FI1AgJ+tkGZSWGokGjn6/RbZypUPFDH17go0pxvxpEWHELWHZKeNEqYak5gr1aBo1yClFZh1lWYO1HlKEEdN+FXm5BrTYR1BuI2nbnfQiC0HdEHKeVuEmJxKDrgGUiShjw0zoVjUqEMBMik3KQTTuYSLcxnraRzJhIUAmy9JqchoheE6UD6CYF7jjb4CzDQ0ojkVBJqS6JwkVC9aj4sBTKTFgaVDT6/VxUkpMat3XR30N/VhCFCKm0wwiURKASJLEfpLHvpqik0WpbsDnjaJF0WvQzWiHUVoCwSVlKkzKUXQ1Lz/LYWU5A229ArbU771cQhL4h4jitcMc1SUNJJqBk0wgKadjjCSoG2uMkjnEfE2NVTI1UcC2zhjcyGxijeD1mRNANLW5qAv0PLaKYH5EADgoFcrrVwLchyYEewxeF/NBJZj4v/G/3CybupqDfT3cp4YBPP8mPNHiRCi+knxoqVEh4JBWF7kf0oiAI0PJC7HnA4noBv/ntVTy6MQHj2Rb01f3OzxUEoW+IOIacWA4mZROUKXg5E2EOCLMhUmkXIykbJbotUIaRzlAIz1mIcga8PAXvXIBcto1CpoVZq4wZq4IsSYILNy+pnK18Hv1JCHxzcBsLgu9/6Wu6PXhdfLf778HXX4bFcdDHzboJ6VVhRKV723mycxtRZsIZikO3jUDBdiWFJ8+m8eTJKJ4+srD6VIW53oK5TZkHf1/nH+HLfDn7jIdDGwhNkrSpIrCUzsAFi1xt0adB2aVmUYYX0HOeBsWmrI9K3Ndkc/GhuD7AxfdJ7GR4GQ03dIg4hhyF+yfSabhTaTTnMvBmFfgzHkbGarhc3MbFzC7OJyqYsmykSTAWz60wKJBwZqGHMLQAybipyYNOgZ9LJ9x/KeR373ZuvjpAfOnVPfF3fxoriPg7D3YkQ96gzARwfA21honFnQL+1f3L+MWdaeQ+2UHmDmUeJBgJYF8BZ588AMIiO2RSVJJxRcPPGnCzaqfkIqpQRDCyLsycA8/V4TQtaBUS876CRLnT12RUHGi1NpRmO+5nilyXDjsddy7C0CDiGBLizIKCfueCNwHKGBQqo3kHMwUHyVEN6ngSGKUa/IiPbL6FmXQF04kaJvQGSrqLhKaRKLhDnNRAkV5RqYZJotC4ySlueuqE7q/OE46XWB5UglCB61Hm0Uzht6tncOPFODbvRth9QO9lmY7JKtWAA6oJ+3R72uGRctkk9JKG/KyN/ISDXJrdQZ9wkkRCJUhRZsFDpsknfooqDikfetKjZEKDb+tQmyr0BmUcdTpHGj7Cpgev6aLdilCzVVTbBirNBFpNk15DSU2Dzid6Xm15X2QkwsAh4hgS1FQyzi6cmSzasxngrAflnI1rY+v4cGQZcxkHpZQB06LQb1HN0fCR0juZRFLxYaoBiUHpdlR3fmZ805XF51+fYA5yCc4+OPPYbaewVMvhL1cm8evFMWi/oKD3aw+hTTVh2+m++vQSZRIIZkeRvGTg7AcbOPfGNuaoIjFtNZGgiojFlREeOk2ViXiCpk7nAPdpUSYacf8S9zX5dO6RAyI/ROD5cV9T1Y2w7VpYcYpYapTwbHcMu9s5JFcUJNdCmJt16NsN+gzoc3DkcxhERByDBLdF8wxsqikGaaoNUomydBFnA0zmXUzkHBjjCegTKShTPpRJF/OFnbhjeyLhIk9BwOT5EpxUqJ2Oa507szmb4EyCf373Vw063LHuBjr23QQ+Lo/hs+0RNG5GaFKpLFmoLFNW1qKg1aZyWpqvun0ZQUaHM2YhOa3h7PkIc5dsTF/Zw9S5MiaMBsaMNkyFzhW1M0z6oD+Lu5W474pOls4h6/Yz0SmEMCRxRCFsOvANSiLKgYltL4fNdh5rtQIq+2mY2wq0nRDebhv2noutuoXdOn0OTTqnGxr0JomdMhaQgCKPbXRKPpcBRMQxSNAFrCYSiNIJuFNZuNNp+HMuQsouPhhZict4RsFYWoWWoosuGSJrtlGgQJCkjMKkIMBDYOMAEIuCfyg3PcVxYaiI4xq9UZeqyjskjy07gaUtAy/WLSz8ZorKNLBVAXbKp6f9nSod3JfhTidRfTeP8Wse/tHF5/j+3CayBReZLGWf3J+lHGSfLAquTHRzzu5Jwl91zhqCxRHf0H8U6FnYHhWHaid2ZKLtm5SFmHAcyl7aETwq260I6w0dN/dncWd/GsqaGZfkBp2nGy1E9RbCZrPzuYg8TiQijpMMD3lNWAh5fkWOvJEPMZ5zUaJbfSIJbSKBYJpqZ9MeruXXcZ0KD5cdoUocVRbjobI6ZRaG4pMw4oriweV+auCRWCyPVqBhrWVgtWni+c2xuGx/5lEh8bpDHpy4yckyYZSA9IwP6wJVLK4ncIYyjZ9PL+H66DavBBPP7O/0ZX2uBbp9+TMmlgff0j983Ek/JBIqIeW08dBpHmwVYc9TsOWauF+bxJPqBJRtAwpJXdmy6X4bu1UV21UNXk1DRJmI2gzifhHFC74YpSUcKyKOk0zSQjRahD+TQvMSYM3beHd0DddHtjFGmcUIFaTpIk+HKJlNKq3OzGxuWeDrnUonsxjOrOJl4SG8Pr37pq+i4VMGsmNgl4LVx/86j9//Xzm4LVbq8KKkk0Ahj9wVH5M/3MeZKw2cn3BxrtTCdLqOkUS7k2HQuXNwjrzKuRLLI75HZx/d4Z8ax3oqnJHYJJE2yYQndVapoE16aquoNz0qLj4rT+JGeRrNlQzCpQT0NRvWeh1qvY3QcemHSIf6cSPiOElwhsGzuNNUS8tHSI4oGJ/SkT6jwbmgwJpz8FZpFVfzJA4zxAjVEBX6FoWH3isBTNWPRz5xsiH8MSwPHrLbdICGE+Hf/x/T+Lf/6wzsKsU036d/OLoNH8lZE7mrCUy8Q7L43h7m52u4mG5hMuEgofkw1ICOzNFUK/gIc9gPSOY8odPnXncSCT9Yo4yiRp/D3foUbtdm0FxPI1hJIFx3qDRRKwN7NQNeQ4XepAy6TX+33ekTiZFM5MgQcZwkqGYYjRQQzJlwLweYmK/jJ5ObeH28CqWgwcxFGEs0MEKZRSrOLOhCoWuOl5TizOKgieFoQsDgwWGFezN4JK4XRvg3/3Ie//f/fh6tHRdhs0VPDmdfx8T7Pi785w4uvNPGhZkmpgsOCvHSMEFnZj93eB8h/Nviz4LkEZ+x8QPcpNiZyLnrpbHjZkgQOsK6hkotwk49xOPdEj7bnkF9LY30CmBuOFB36NpotKUJ64jRknr6L3TfRFYpIAFKG4Wjg2fqJkyEeRP+hI7kWQ2Tl4Dxqx5Kb7mYv1LHB/ObuDa1i+mijel0GyOWi6wRwOLJeSQOjUt88XeEIdL4evjYcKMUT1XhRXkfrI7j9tYkXJfCV4PSEG5HGSLiTbHSCUxec3H952Vcfr2Kszkbo3QOJbWwM5nzGE6Yg/M0zo7pb4gLnceccJtahIzBTa8OxlNtTOSayBXbSI3R51PS4BVSyOYUTKY8FDIOdCpRNoKXteBRtq5oOlQeNsiISA4NEcdxwm3PlGF4FzKw30ti/H0HH767jvevrePquQreGCvjfKaOYpIXD4xg0cVldIfR8qVxDNf8UNA5bgo+a47jY20SHne+rtlQvOHKOKJ8CuFUCXPXQ3zw7h4uTDaR17lJk8+fTnZ60jgYzaXT32jSeW6S4EyqKKXNAKVEgLlMG68Xy7gyuY2JuSrU+QDOWQu10QLqmSKMyIDh0k/g7JGbH4VDQcRxlHCGYRoIcwb8ER2pMzrGzisoXAuReSfApatVfP/iOt6Y2cMc1bKmU7xMuYcE1w7pWuAaomQW/YGP32KQw2oyDWWTaq1PqEZrD1cNNTGl07ll4PJbDbz7+i5miq1YGtwHdhLPn4Pz+vNMhLMQrixRFsIVpxzJY4KuielsA1OlOrJjNqXn9A1jBpRcAlZaizOVjOHCSyhoa/Q4D2HniYqMZCB9Q8RxlKRTUIp5OJfSaL6Xxtx7Lfzg/VW89cY2rp0t4xplGBfooigmSBa88RELg2uGdCGdxAt90IkUrsU2oC462Lutwm8P11GeudLCm3+6jetvbmN+ooFMgocHDN65xH8vy4T7YgzOQijrtujasIwQWYtkknQwn2vg4mgZc9PbyJ1pYG80h7XcGEnSgNWib2ZnSAbSN0QchwlHfKrxxPMwCibS0waKZ3Ukrysw31Xwxht7+NHlFVyZ3cd8qYUz6RZlGG4sDYMqSV/uuxD6j6W7GEs2UHmoYfHTNJzWkIxHo/OOVxiYf6uOD/5sC69dqqGUCmDROTWI5xL/zVx4LhJn3dy3p3fFwVnIaMLBdKaFmUIdpbEaEhMOKtk8aqkCCoqHbOgiNHnTSC3OQOhHdH6iZCDfGRHHIXKw8GD7Ygb194q48G4dP/xgGVev7uL6uTLeHNuLa0r5RIAkpePcjHDQYckXinC48HHmTaWW7qbx6CZlgiyOIQgm8Uq3CQvn33Dxzoc1TI978fnFgXdYOBg+zI1QXMHipXMMkglvU5w2IsraQ8wVmpgb30XxTBWN0QxWc5NUEaMcpEXfzwuanZYVAw4BEUe/4fM5no9hwMirsEbpgbeTUL+fwrtvbuGnby7i9TMVXB5pYC7LGQY3S3VGSH25D0M4fDiQsqwXHuRx//YIbJ4IGFAwGXR5pBOISmlcuG7j/ffLmBhxoNGJNWznFb+fg/6QTl8IiYNK2owwnnZxhjOQ8RpSM23UKAPZSk4gDR9px4kXbPQUFRFnZ5J49IyIo99odDKWslCmCyi942HqTxp4/Z0Gvn9pD++Mb+Ncvo4c1YZS3Iehcqc3LzA4fBf1oMBH/tHCGO4uzqDd5o2J3IGvibozaTSvFDH3toO3Xt9FKeueivMrfo8kgk4WwiOzQlg6j8gKqYIWUQbSwszoPgpnanDGktjJjiHUDOg2Zfn8kUvT1Usj4ugH3OZBVR/eNS1KGzBnM0hdTGPmB3XM/3wfb5+v4EdTOzib73R8c7OBRSXOMPjbOz9FOCYerkzg1soc7AZppN6CMuB7dfgXUvA+yOHC1Sbend2mc87pPjP88LXEWUg8nJeyjyRl81krxETGwXyphsJEA9bZNhrZHHasCWiRgkTLoayDtyvuTEiUDOTbEXG8KpzqqpRlZEy0L2YRvJ3B1fdq+NF7q7j62i4uTtcxm7IxYrpIqMGX+jBEFyeFe+sT+HSTMo6yD223ES+mN8iMvuHi4o+reOvCNi6XKsgYp3M0UXyFxddaRybcHMw7WvKckCLJZDbXxuRoFZnZFoJRA/VUEb5ixsuYKL70f3wTIo7vSvdsjDe6SWjgJWmdt/PQvp/Cj99dxT945ynmp+o4k3VQImmkNT+uBYk0Th53dybxye4M7F0fxmYdqjPYgXb2rSbe+NkuLs9WMJN0qMJyeoPggTQ6GUiAJEmjYAWYzNq4MFpDbooyzHM+2tkM9pVxeK5BWSdlIA6v30VI9vGViDi+K6aBKJ+FPptC/h06EX/QxtW36/geZRlvT+xgLt+gk5RP1i+apISTye3yOD6uTsHdcmGt1KDag51xRFNJNMdLyCZVnM20kDG97jMCy4Arbzzw+mBYbzwrnY7RDGUgZtbHbiaFpmHReUDXrSOZx1ch4vgu8NmXtIDxIqzXUhj9aRvnflbFD0gaP5vdJGlwB7hP0uiMOxdpnGxuNcbwUWsS3rqLxGIdWmuwxdEqFLCTnkYpG+LqxC4KlHUIHfjSZWkcZCBpw8dIwsN0roULE1W4BR33M1PYD1Iwt10YNVl596sQcfRImDbhzuSRft3ClQ8qeOf9DVx5bQ8Xp+o4m25hxHLiWa1xX0b3e4STzeN2AY/dArBsw3zcgtIc7FpmpCuI3AjThX3MndtFKutSsOTdH7svEL6A+yjRmePCo7B4pemM5aOQsqEVAgRZnS56g46n0ZGHzP2IEXH0iF9MwnltDMV3Vfz4R8/xk/ef49J0HecozeVVR1O6L9IYMBa9LBajDIIXHnCfaueNAa9dcvPKnouxsQom36ggU+QtYXmyo5yVfwi3BnSkEcUrTufoGp4rNJAueShPJVBLpRDuJxBWSCA82k6WLYkRcbwknGn4EznkLhu4+kEd77+5hevndjAz0kTGjDrLhHCzlFybA8eWb2E/0hA88+DcjhDWu08MLFSLDul8zNJ7Smaw5ZWw4I7ieZDHZpBEhd6rHYUIwEGQm1Jl0Aa/87jQPywRjYfM8+grw0Yp1UQi68HVE7DDNAUDOl4DPvLuVRFxvCRBMQV3fhRTbwF/7wfL+PG1FcySNPJJH5bGtTmRxqBSjRTYagj7SYTKTd7rerA/SJ6TwOLw1Az2nUksOhO4o49hQctiTzHQ4tluik3nrBNnx0Zn9gKdv3ICdxZS5Am6PsaSNsZ4P5DJOpQiUHbGUG6WoLRdKK3T3W8k4vgWopSJcCSDwkUNl99v4p03d3D9/DZmRxtIUY2EFyPs1NaEQaUaKmhQDbz8UMPODQtubTiGM0QqZRy+DrsNtKoBvE0fwbIPdwloLxkor6axuT6Cle1RPCtTRtIqoEFncmh0VtHl/TBOG/y++XqOBdLtQDfpeCSMCElDgZUKYFs6qloqlrNqn86mKxHHtxAW0vDnRnHmrQA//dEyvndtDWdGGsgmOvMyOMsQaQw2DaqAt6MAuw9MrH+ahFPjcTdDQEDnbytAsO8iWHMQLbrwnoRoPDGwv5DF+vNRLK5O4fH2NO5UJ/HEKSKwHCSzdVgUOHOnef4HXdScjfGyQGkjRD7lY5yu+8yoi1VrBEsYg9ZwYezZ3e84XYg4voYoaSIiaRQvqjj/Tgtvvr2LN1+jTGOsjjRJgzeXkaap4YD7wusUIzcfJLD6SRr2sIiD3lfkR4hcMogdQCFDRvUIQV2lrEqnLERHk0qtrFGhrGQ/hFpx4FWA3Xoem14RLcrGFJObZRTwSsKn5ZTn98mFr/F4q2GqJPLkQcOi42cY0CwFAT1ehRkvUTLoQ7h7RcTxNbA0wukRnH3LwU/+ZAnvvrGBM2NN5JKcaXROKGE4qFFwrNLFv3E/iZWhEgebo9PfoZBAFI++dkkkDgW/dgSfROLVfHickWw7CNcduGsq9lcyeNqexH1MI+Qd9XLluA8vw82y3R99WjgQSLySss7yCDGasVEqONhIZvEsMQqNjqG5eboyDxHHH8J7GaQSKM6rmHvHwbW39/DW1S2cGa8jm6QaR5xpiDWGiTqLg8r6gyETxwHkC64Vg1ueIgURVY65hJyNeJSFOAGitk8pR4iwAbQpG6k4FiotE0bdhloPsN/MYdMvIICKrOFSIOUfeDrgq50rilwOMo+EFcDWDQSWBqUNNOlY8StPS5+HiOMPUNJ0DIp5nH+rie//fAVvXiNpTLQo0+h0hIs0ho/PxTFsGce3EU9o44yEjEKFsxKeOBhnI7UA4ZZLWQgdm+U0nrYmcEeZRsIIMJ+rwtJOV9MMw1c+X/4szYQeIJ9wMZG2sR9S5hFNQCP5GjtkkVOAiOMA3lKSSu6MgolrPq6+t4+339nE3FQT+VQQrzkl0hhOTq04Dvg8IyFxcDbCArFJJg2SR11Bu2Ji10li205iJN3E5EQduh7Go65OW5Mtv10eccWzzFOGH88yb0UWnHhtqzDO1hh1yOd5iDi68B7Nimli7u0Grv/ZFq68tYf56VYsDYPiiEhjeDn14vgquG8kIJt4nQzEI4kE2x7ypTbM8z5MK0Reoxr2KWqy+jIHmQcP181YHibzLTTcFBacSZJGCL1CmccQHxq1e3vq0UcVJF8Hxq85eO1aGWfn6iikfVj6cO3VLPwxfH2fzvD3NXSloVAADO0AfsNHtOlCWWij/FjF0wd5bKyn4bmnN3xwSOCsI214OFes4p3ZbbzxegWvvddG6TwdwpF0PAcsNswQIuJg6MNNXKAa1J8HGP/Ax+y4j5EkpeJU8TzNyzCcJkQeXwNJJArpyLgBtJaP2mMLL/7DCHbuZuC3JXwolHUkdB+lVBvvnd/AP/nhQ7z+Zhvh+TEEpSynJd1XDhen/pMPcgac2SQyV4D5D1o4c5GXGfCRMcL4MxdtDD9epKMZ8jpERrx9qPAlYqN+kYG011Ts3DSx8jSNJ5UCNpw03PD0Nu3x2WIcZB5jFXxwcQNXrlYw95aL4mwIlWuf6vCF2VPfx9G+nEXjwyKuvNfET69s4VKhHm/zatJnLSHkdLDqp/DUzWH1fhq7n5rwhmTJkUOBRBK5IVoTBtbOFBAmVUxYrXiHy1MNBYt4uK4eQucMpFRHWA2wt5RA4NH5NGTLsZ/OK4Q+4MjSEeYSSJ7XMfo94OxrDq6M1DCdbMPSqHbVfakw/NT9BFbaJey5Gco+pGP8mwidAH7FxcaajhuPS3iylkPbkWPG8cKMdxP0cXaqgvevr2Luch3GOR1KiY6PPlwR5ZSKQ4E/moFzeQKXL7v4Ly4v4oPxbRQMyjQUbqyQ1u7TRNmmjKM8jo1GDt4pbnZ5KTjjoNpztOIh/GUb0V0HYTMAPSJXDcF6SJkhSmkf6dciqH+qQbmqQrE6zw8Lp08cJA1FV5GY0lG4buDKa038vbNruFoqI0PptmzCdPqot5NY26OMo5GBH4g4vpHupEFs+sBnNpynAaoNDU06bkEkVw7DIzFziQDFcz7Gvu8hcymEmqRjM0QjrE6XOGJp6NCTBl6/sIc//8kDvHV+AyNWG0mSBo+QEE4fUVNDtGUCFQPwJfi9FB4Fw4ZPstVxq1XCIzePZtiZ/Hba4TOIR2Oez9Txp9NruFaqIpmkzINiz7DI45SJg95wWoM5puHixQp+/t4CXj+zg7zpwFIDyTROKUpThbJJ0qhQtnH6VtL4TvAIK6XlY79m4l55BM/qBco66BgKMRxLZtNN/GBsCxfHmrBG6NzKkDiGZHjuqRIHtzOab0TI/HmIwtUAI2kfKYMihRjjVKM3IyS3AlgVCoYijpcnitDcS2Dj3ih2F4pwmyKOL8P9pRnNg3mW6iM/sRC8YSJKiTgGB/qsIjK9klKRuhqi+Kc+ipd9lJI+kob0aZx29GaA5LYHoxpA9aW5shdaexa27hexv5iF15Kmqi/DW9CmVR+J2Qj6jzSoV7U4Bg0Dp0IckaHBm8oheH0E5+YD/MnkNs5mmiQM/k847Si2B22vAbXRHrrx9odOzQUWq8BqEzil26h+G+eydfz92VW8M7aPTIoqqkPQ13FqxOFPZxFdLWH+XIAffy4OQaBruO1C3a9DrdsAL+wnvDxVFkeNxNGIdxkU/pizGRLHDIljnMVBD4g4Tjg8ikrTkEqFeOviFv7BB0/w+swOpY9enEYKQozvI7IdRJ5HtQw5L3qB9/JQXMo0PJ+SNZnP8VVYaoisRjFnRoHz/TTsawmE2cEe9j38GYeqIpWOYnH8px88xuvTu3G7I3dcCQITBRT0bBuRS+LgOQrCyxOwODxEJN+AJBLG4pVj+GVMJSBxuDCmFdg/SMG5lkTI+/AOMEMtjiitwr2SgPvDFJLngfGMi5TpSxOVENOOIuxT4GsGvAIsBTye3CZ8J1qhio3AxCYVOzoVLeA9wTHnTK6Bn59dxXtT28hZbueJAWWoP+EwrcF5Iwnnx2kk5jWUUh6SumQaQocWZRe7JIwG15Q50xBxfGeaoYZVP0HisNAmiQh/zFy2jj87s4zvTWyhwOIY4H6O4fyEuW9D15HJANdmq/jJhS2cKTTjHbsGvE9K6COr+0X87ukFLG6NwfVlKOmrUCNhLLZLWLILJGSz+6jwZVKaj/GEjfwIVWrnc3BncgiTgzn3ZSjFwXuHK6aBfEbB96b28J/NreB8rh4PvhVvCAcs7Yzhb++/gccb0yKOV6RG2caz9iiekzyagYjjqzDVEAXdRbKkwbtUgnO2gDAl4jg5pEkQr2kw31ExOuNiJtVAxvC6TwpCB3tLQeU20FpREMrp8Uq0XRPb1Rz26lmR8NeggrehjjBaauHaG1u4dGkXmcxg9nUMpzjylHW8o0H/sYr0mQB5srwla0kIfwDvox1+1kS07AAyY/yVcFwD5UoGlWoarifi+CYmSjX84NoC3n1tGYVMq/voYKEGUUAeHJIhdHETlYl0XsP5sy1cvVDBWL4NXQmhysq3QhcnilALQzgND9G2DdQp3ZCJf69E5KgI9g0EFQORKw3C30Qu4eHcSB2z4zaSBQNIJQF9sOZ1qH7gkTZ42s7gw5P9lEQCBRLHO5MV/HhqE9PpwTS6cDjwed4icezyMFzXh9JyOxPYZETVK6HaCvR9yvIrKlRPxPFNJLQQY0kfpawKs5SFUsgCxmD1dajD1GGsZiIkLkYoXPFxZrKFs6kGsro0XgtfwHrYcNK43RjDRjuF0KNsmyQivBqqS7GvGkGvUQVOLrlvRFeBpBYhVwpQeN1H5pIPIzdYFRdVU6mWDnUo5GEUQ2Tfd1H8kY3ClBMvaWyoEhSEL4giJR758zd7l/CsNQpfJqv1BdWLYNQjmM1QVhj+FjjWqoqC5KiH8ferGHuvBqs0WJ3kqkri6LyVAVaHRhe/ZSI1omH2Uhvzr9VRLDjxsiLaUDTCCf2CF9HfbWTxeHsKO3QbhsOSbx8/Cjf3yeX2UvBZl816OHu+hrlzNaQzg7Wy8HA0VRkGlFwGuVELb4w38OZIGaWE031SEL6AY5tdT6C6kYNdS8QZiPDqhLoCL6XCTyrx3jfCt5M3PbxeqOJyoYYc3R+k2cndPH2wP2gjEyFzLsL4BTL4eAtz6SYyuuwNIHwFJI6wrsFfSyCs6vRF93HhlQgNwMtRySgkke6DwjeS1HxMJW1M5DwYJQNBgSoy1mAcvKFo4E2NuJj53j7OfG8PpbE2kmoAXYbfCl+DUaOLdi2kW2la6RdBIoJTAtxCBFlx5OXgxIznlxkZqsiczcOeLyHIDsbBG2xxcN9GwkRqPMKZq3WcvVxFodu3wbM0BeEP4fqEXveR2HCh14L4a+HVUawIasmDWvShGJLGvQwcoww6AZOZELkLEXKX6GvK2gaBgRZHlLAQjhWQmUrj/JiL84UmMoY0UQnfjNokaezUoTYcyP4b/cGyPBSLDeTzTRiGrNLQC4VcC29dXsG7b7zAKB3DQWCgxWFkFaTndIycVXCGxDGddpDS5aQVvgHyhNp2O3uMt0gcMvGvLyRNF+P5KkZzdZiyLlxPZFM2Xj+7hWvnN1HMtTud5Ce8o3ygxVEYa+LqByt4/e11jBRbnSYqaXsQvpEo3ukvatIFyjv+CX0hp7dxMb2Nc6ldpLXB3qToqEloEcaTHibTPlKJzsrevHzSSWYwxaGpiEwd+QkHr721hYtXtijda8fthQNtQuFo8HygZSPiW8k4+kJOd3A+tY+zibKIo0dMEseIFWAkHcLM6Qi5g9wQcfSdIJuAd3YE5lwW02MhJrOu7OwnvDwkC9kqtr+k1RAzuotJ3UNC9vPvCW6Uiqe+ZHS0L6dRfzMHd/Rkj64aSHEoOQPqfBaZcwlMjQYYT3mwdAkCwkvCwohEHP0kRbKY0n1MULFUOa69wM7gRZ/UjIbwNQvB9QSikZO9Wu5AimNyvIbvv7uAt66soZixoSvDs1CjIAwUvJWBrkPVNBh0EfL0NWku/m4UEm18b3YNPzv/HDO5evfRk8lgfcY80kBVYnF8+O5zvPk6i8PBwWpbgiAcLQpfk7oGVVeh07Wp05dyLX43CkkbH8ys42fzSyKOfuKNJtC8PgLlUgajIxGKSR+GJmmxIBwXfs6Cc64IdzqHKCFrjbwKPLinYHgYTQZIZs14/T2YJ7OvY7DEMZZE89poLI6RkRAlEYcgHCsBicM+VyBxZBEOyDpLJxVDpcqw6cfiSGQsKNlsZ2juCWQwxMF9GJqGubEGfn5tCe/MbyOf9LjVShCEY0TLh7AuujDOeFCSUol7FTiccVFTgP56BO2DEMrkyTymAyEObkdVVBXz4zX82fUXeO/cZkccdJjFHYJwfGiFgMThwDzjQk3IMNxXhSOamqbjejWC/v0A6pSI4zvjTVlovpeFcVnH5EgbIylHdvYThBNA4Ktw2iZcx5BNsfpEyvRxeayC92Z3MJFpdx89WQyEONxZE80f5qBcNVEqePGmJ5qMFReEY8d3dLQrCTh1CyFJRHh1MoaHN0p7+OHkJqbTze6jJ4uT/UlrGhTDwMy4iw+v7OK1mRoylh/vtSF1G0E4ftR6BH0lhLYZQpFNN/uCroQomQ4mUzZSOR1RIRtvH3GSONHi4A5xxbJwcayJP7+4grcn9pCSZdMF4cSg1UJYz32Y6wFUR1oB+oFGFeO06iNnBjALSURjBUTJRPfZk8GJFkc0oSF6y0TxfIALpRomku14yJogCCcDpeVD32pB27OhuLKlQT/g1hSWh2mFSJwNkboewhg/WXHvZDdVzZM4fm4icSXCSNpGRnehygJqgnBiUGwXyl4dSrUJ+CKOfqImI6QuOch/2II1fbK2ADiZ4uD1bzQNY5MurlyrYna6hbTpwSBpSN+GIJwgSBZKy4HX9lDzFNRDFX4kV2k/4J0UpycaeO3CPkoFu/voyeBEioPnbCimiQulJv7+2TVcLlVk+K0gnER4ifrAR8uPsOmr2A5U2CKOvpDQAlzKV/G98W1MpU7W6KqTJw5VQThqwL9koTTj4wpJYzLVhi59G8IrQiEOIQe67tdCH+Cl6cMI9bqBF8t5rK7n0G7L0iP9gCvLY4k2zmUayKfpOKcS9ODJOLYnUByU/c4bcH6ehnFRRdF0kFI9KHK5C68IS8OPQrqV7LXfVHdSeHxjGgu3J9GonqwRQIOKSjEvqQTI8R4nvHZVqQCckNFVJ0scvLSIrqAw62PuvTbGZl2k6aDxXuKS/AqvAlc7XBJHi6QhO433n1bFwMaDNFafpLFTtVALNXjSZPVK8NHjfl3LCGFMaFAvmlCLJ2ODpxMlDu7b0A0Nr4/W8Q8vrsR9G5r0bQh9gMXRpn/KdDrxreSv/cVvBLBXHOyt+nheN7DsJdAkeQh9wAC08wGMH/hQz5yMeHhyxMF9G3kd0bSJ6SkbH05uYzbblBVwhb4QUu13l4LZs1YO+54l5ugzoR3A3XVRWY+wtJLC8nYGDVv6OvqBZkTIz9qYvl5DdvxkTM8/MeKIDAXOeaql/DgLY17FqNFGWuVGBbnChVfHi1Q8bYzhr7dfw2JjhM4qqZH0lZCuU99Hc0vH0qeluDT2TETceS68EqbKo6sq+PH0Gs5kTsbOgCdGHAqlY4mzCnIfUJkNkdNcWHTA5PIW+kEQqljfL+DW0iw2qzmpjvQbFkQQwt5TsXUvjZU7OaxvZbDrJGEH0mT1KvDoKhbG2yM7mEy3KGpT2OYte4+REyMOUwtxbXwf//DSMl4bqXQfFYQ+4VNsW1ERfWogWqNAJh23h0LQDuFsuFh7oeOXL2bwVxvnsNbKdp8Vvgtqd+2qku4hSRVs3hWQJ0gfJ8cvDr5+NRWGpeDSaA0/O7uGs/mTvVG7MIAE5Ip1BdFtOuE26WtJOQ6F0Anh7bjYXlZxY2EUHy1NYr2eikdYyTCX7waHyITaGZZrJjWEuQQi3qb3GOs+xy8OVUOUS0MZLyKd1TFm2EhrsgKu0GeiCGrNhrZWg1J34q+FQ4COaxSGCPc9uHdsNG442NxSsBboaIQnpoFj4Ij3OlUVuFNJNN4swplM0oPHZ47j/yR1OiTFJLSZDDIFFSUSR5LSMkHoF6yIiDtvaw7UzTqUhtt5Qug/cV9HgLDiwXtA4vjMxcaairWmhYYvfR2vhEZZ26QJ/3oa4QS3WXUfPwaOXRyaFSF7qY3R79eQnJGdYIT+ws0jLaoBVyiY2YGPiG5BXwuHixKEUJuUdawrWLlRxOPfTWBvPdGZuS/thN8JntM2P7WDP7n+GOcmdinhOL7jeOziUK0QuQttjH1YQ2paxCH0F15mpEnZRplH/PgkDJ+yWRHHoaP4EbSmD3cDJI4CiWMcu+spuEEkh/87omskDhLGj689xdmJPajHuH7fsYvD0gLM52p4b2wHk6lW91FB6A92YOBhZRJ/ufYantdL3UeFoyJ0I9jbPnaeqbhxfxJ/e/8iVvYK3WeFXuC1q0qWh/MZG0XTP86WquMXh0np17lcHe+O72JKxCH0GSfQ8aA8gb9av0ziGOk+KhwVgUPi2GJxKLhxj8Rx7xKWd4vdZ4Ve4L7wEgmDxcG3p1McuoaokAEm8khmDOQ0L5aIIPSTyFPgr+pwbxsIto+9nnT64FFWfgC/7qG16GLzVohPHo7g3724gMWqCKQXWBQa/WOQQdR0AtEoZW7p4xlddWxXUvS5OIqwSBwZtbMKriD0FQ8Il1UEtzWEWyKOI+dglFXTR/u5je1bPj5+OIp/+/winlVEHL2ikT70WBwpYKyEKEO3x7Cg37FdSXoyRO5iG2PvNpCacOM/5DhTL2FICSKoFRvqWgNqXYbhHhsBVQpbPsJdF42HHjY/jnDrWR5/tXcGi+1890XCy8BxUpmi8/o9Kmfoi2MY5Xx84kgFKF5uYuKDMtKTMppKOBziYaFVG9pmDTJ/4xgJIyiOD1QcuI9slH/n4ObjPP6/nXk8aUpneU+QOdRZksaHAZQ5EvIxLEJ89OKgNIv33UhYwNxoA69Pl1HKnKyN2IXBhwcqBgjhRfSv51HQ8gA/6DwpHA/cbOVRoKt6iNZd1O5HWPudjmfP07hrF7HpJ+kTk3aHl2GqWMd78xuYHalBP4a+4WMRBzQt3gFxvtDEm6P7GEuKOIR+EyHg3f7CAEEQxB20kC1jjx2F5KHaPtQ9F95dksdf+3j2JInfNiew7GbifVOEb4Yn/p3LVvHTmWVczJdPhzjChApnNgn/YhLp0QhjloOUrE0l9Bkn0rDmZfDEKWDf542bqLZ7fPOlhAPoM1ACbrYKEe34CBc87N5V8ez3KSwtJbDqWqiGumQe3wAfmaLpYD5dQ4nip8ad40c8surIxRGkNbQvp9B6OwNtTENG8WEc49R5YTixKfg8tQv4tDmJTS/dfVQ4MXDm0Qygbrto3FKw+m9NPH+YwBM7hW3f5DENwjeQUgOM6g4yWhA3/Q+9OJKpALPnWrh4uYGRkgudpMEzIgWhn7i+ho1KAU83x1FuprqPCicGzjx4CRg7hLseonEPWL9r4cmtHFbXEih7arw3vDQufjUcN5NqCD1pICqmEaUTFM2PLpwfrTjIivmEi/dmt/HTC6uYyTe6TwhCf/E8HbtbFIRejKJeFXGcWCjzCOsh/A0fO7csPP73JTx/kMZGW0UtVOIdaYU/hvMLXmo9yibgTxcRFlKItCEUR2RqCAoJmBMGzk20cGWkjFJChuEKh0PkAs6mjtaiCa8iy3mfWEgMkUvyaARoLKvYumVi+W4aTx8VsL6ZRNPj/eJlPd2vIyppiC6ZiCb0Ix2We2TiCCmlcs7kEZ7PIz8SYdxqIymd4sIhoXgRtE0fxoILtSzDcE80PHCB8Koh2qsBVm+ncfuvZ7DwoID9FmDLUuxfizIeQbkWQJkNAaP74BFwZOIw0xFK531MXPZQKnnI6LI2lXCIsDj2HGhrbSgNqaCceEgegR1Rdhhi/4WBFzezWLyfw+KLPLb2kmi5CgKSh+jj75It2pi9WEZxvAldP7p4emTiyGfbePPyGt57YxmjxUbcPicIhwYvcdGwoZTpXLNlxvhAQPLgjbZcyhDrSz5e3Mni49/M48Gjcew3Vco8eEqnqOPLzGbK+OHUc1wq7MI8whacIxNHJuXi4uwerpzbQTErE/6EQ4aCEAtDabR5iFX3QeFEw01WVLxmCHsnwNaChcc3S3hyv4QXK1ls71toUubhs2C633LaGU80cb20hdl0FcYRtuAcmTh4w6Zxksdk2kFKlzZn4ZDhIBRS/ZQzD74vDA78ufk+nH0f1Wcent9K4ZPfzOHu/Uls1XQ0KfNgeQhUIddCTBkuChRftSOcD3d0fRxahGLCRynhwTrCtjjh9MH1UW7SiHgsJ+9TKkFmsODPi4Tv1Xy01j1sPjLx4NNRPLw7gqXVNHYqJpq8zwp/vN1vOa3wXI4SSSNNt0e5uvqRiYNRoZAVuXdD+jeEw4GFwcM3XaqVcou4MMBwtuhy5uGhuuBj+XYCn/16BnduT2J130KV1yI75ZUCjqQqxVSVrKEoGn1xNCH9aH4Ly0JRO29QtCEcIpxt+KQMXhU3kExjsOFs0fPhVXw0Vj2sP6TM4+MxPLg9hhfrKWzXdco81FOdeXA0jWOqqkHR9fiW4+1hc/ji0OgNmWZcjnJKvHA6YVXwOkedoZsijqHgQCBlD7UlH6t3TNz79QTufDqJ5ztJ7IYKnNP+URsGkE0BSetI4uwR/Ab6Fbz5RoLEQRIRhEOFAkjcxyHZxvBwII4aZx4BNh8YePi7Udy/MYbn62lstzS0fOV0VxMsEkcuDaSOZs2qQ/8NUUKHP5qmkkFkHcNWVcKpgptDTUWDRUVTDv8CEo6QrkB8FsgKCeSeiUe/GsGjj8awt2XBP8XzPIK0DnsyCa9oItKHoKkqJFl0xJFCSBIRhMOELxmDTutYHNKbNlzwKDm/k3k010Js3dfx5LclPP54DDubFpwgQnBKV0X0SRwOicONxTEEGUeQUmBPc1ERJLsPCsIhwZ2FSjwIQ7KNoSWK4nkefjNAcz3E2lMTnz6YwW8ez2Ojkuu+6HQRZAF3lsQ5QsfGOHx5Hr44SBYsDZYHS0QQDhseZcJNVvyfMITE8zwC+A3KPDYCrD+z8Mn9afz2CYmjnO++6HQRZiN4syH8URLHETTsHLo4dDNEsuDERTdlxrhwhMTDEkUeQ0uceVCw5D6PZz427gJ317P4pDmGTe90NW8UU01cHN/EVL4MUz/8JXYOXRwaySKVt5EicWgkEUE4UkQew8tB5lGnzOOZi627Ie6QOH4fi+N0bd5VTDXwGoljmsVxBIsdHro4DDVALmEjZ9kwVVlsTjgiFBWKZUJJUc3TkEEZQw3PAGx68DZ97N3WsP6RifI6z+3w6anTUVkdMRxcSZdxJtGERTH3sDl0cZgaicMkcZhtGHRfEI4ChZdgSFhQ0kkoPDlKGFqUIIRq+wh3PFRvKtj+pY7qSoT2KVp2ZpTEcTVZxRmzCVM5/Pd8+BmHEiCrt5E17Pi+IBwFkaoiInFE2RQiUzKOoSeMENkRgq0AjQUFC09K+OzJLDb3T8coqwTJoqh5yFK2ocUts4fbPHv4neOxOGxkNRLHEaRQghBDGUeUNBFmkpT2ijhOBT7JoxKgvaLg8cMx/PbOBaxtF7tPDjeGEiGjRkhQiVfJPeRuvaPJONQ2clpbMg7h6OCOU9cDbIcCipx3pwLOOtwQXj3E3nMdK3ct7G0rcZPVsO/fwYFcA0nDMhDlM4jSVGE6xCWejkAcPkmDMw4Rh3CE8JLczTZQrpE8ZOvYUwMJIrRDtFZ8VO55qG37aIZ+vMz+sMPzlqKkhWgsj6hI8jAGWhwhpVAOZR0OdIg4hMOFuwVdCh52SLVMzjaaNuBR5iGcGiJeeqTqo73pY3UthfsrE9iuZbrPDjdKQYVyUYcyQ7eJw2uvOoI+jhBp1Y0L3xeEw4T34OCtReuBD891oTiUbXD2IZwe6BxQXF4MMcDC0ih+de81LG+PdJ8cbpSRCOq1AMoFOueTh9c8d+ji4MWOWRg61QXV073wsXAE2IGO1VoOT/eKqLTMeIJYvKqqcHrgMEOVhdCOsLNi4dmdHPa2zHho7rCvnpvNOzh7voLJ6QYs6/BaeA5dHAz3S4WxQgThcGk4Fu5tTuN3S/PYIIHEJ59wKgl9qkisBqjddtHapAw0XnZ9uCsRk6kGPphcx9XSLtLG4fXtaUk9/Re6byKrFJBA/6fpF866mP2ghZFZH1lVxSE2uwnHTBT/x5WEzkZKvAsfF+5hcKniYEdqXFqhjmakox4aqAUmKlz8BPaplL3u7Xcsy+UcPn0ygYf3i2g9pjCxJf0bp5nAUxE5ESbOt1G4xK0eKlJ6cBS7qx4PaoSU6aK+omLlTgb1fcq6+arsc/1JKSXGooSdwbRyDgX0vx3w3E8a+PB/2cX17zcwr4cY1aTZYNiIz0kSRSwM+i8WBn3NC8x4kULiUOFEGhUDNsnCPrgNDLRIGi26dXwdDt2G9Hou35Xapo5nv8xg/WMdWGgBa+3uM8Kpg06jSFOhZVTM/2Ng/p9E+MH0Br4/tQldHc445NK1Y4cqfvMfJ/D//G9nsXTP6Iwu7PMAkUMXx+yP23j7fy6TOJp43XQweQQLcAkvRyc/6IxE6jQnUg2NrraAsoKAgj3f+nyfTkS+H4UU1Kko9Np4nAMVvs+3Ef2AKGRhBPR6kgcVj57z6DmHvrdNWUY70CnbYFF8UeqU7TaptD0qvkHfz7/ju7egepskj18C7c+odlmxoTac7jPCaUUxFSR/lkHypxn847cW4sJLIQ0jnSs6wq9+M43/819dwuItqoyt1RE1+ttsdejimPiRiyv/UxPXKON4J9HArC4X8kmg06zUzQyiEHxacYC3Ix1NCu6N0ELDT6AeJNCkoM7Fc3X4jg7VVaDRx6hSJUalb1T4lhea88kSHuUbdBvRbRiE8HnZa3rO9RW4gUKZBd9S9sHF10gmnfv8mEti4Q3cIs44OldAz4Q1ek/cRLVKCrSpkkJ/h3DK0RWoF1NQL6XwX/35c/zXf74I0+Caz3DCl85vH0/iX//+AhZ+b8L9fQPh+oBlHCM/DHDuf3RJHE38ILmPebPVfUY4bPgE4suDY7rHTUUB1egDqs1TAOex7hFlBT4Fdy8M4FDEblHwblJmUCVZVIMk9t0Uyl4KVYe+puLaJI+2AbVN4uBiIxaI5kYkER4CSbV8J6RbCtacarA8uPgBfPo6oD+EJeLT7/bpbzgo/NLPs5pYHPGf/51QnAj6vg+1xg1mxKv8MGE4UCiLLiQQ5i380/9uBf/lf7uCTMKPFwMc1q6OG9tj+HdLc3jyKwuVf+PAftrfCtShiyP7A8o6/gfE4vhPMpu4bNW7zwiHSZxPUMxsUO29RkF5081ipV1Eo55EVDWgNKgWZlPEdiiw85h3CvYuCcChiknT09CibKDhGnFp+VQ8g15DGYerxRlHXDjT6GYbClXulfiWLkYuPHeCvo7oNi4kqZBlRSUkSfEI2bjQH3mQZRz0bbxKqOfFCZQ2/X5uJxNpCAwnsJYel5/+8z387J/v40ymjRm9TcnIcJ4jS80M7lZKuPc3Kdz7lwZ27vV3FvmhiyPxoYbsPzNx7cMG/lF+FdeS5e4zQj/g054lcdAf4ZMkuMQrLFCQLvsKdj0Vz5pF3KtNY38vh2jLhFJWYTQoQ2h2mnQi20NgU2YQCyTsSkSBy4WyFC5htyj0M+MAfVBIAJ1C4oi/pr+KrKBw4KbHY0Pw/YNCz/N/nT8+/oeKIBwyqoKr/72NN/6ZgzdHK3grW4E1pJ3ktcDArm/h5l9l8R//RREvblrda60/HLo41A9M6P9NOs44/unIIt5N73afEfqBF4XwKTrv+KlOaWax28hCqSkwqkC75qNZ97BZs7Bcy6Jeo4yjokNpqNAo49A+b1riJqVO3wQ3KQXcP0EP8/w5Th64U5yzAu4g5zivfH7LfwUJ4yD+09fxjJ346y/dMn90+/k/gnD40Ck7+WcGFR1/cnUDP7+yipQ5nIN1OgNSNHzyNwX8v/9iEk9v0HXv03vlSlwfOPR5HP6khfblLPKTEa6n9zFrNbvPCL3A4ZU/cs4q3EijOM9ZgIY2Ny1RdrDUyuBpM497u6O4sTGFpaUi1hfyWHucxOZDE5uPTOw+VdFYBOzlCPZ6AHszhL0doL1Lt3v0WJmyjEoEl4TjcydznfKCBv3mJsmlRdlJmwplJXFxqJBwFBLN54VMoxyYpmObTokF8qUiCMeEn8yg7hcxW2rg8tl9mCad293nhgluguOdAHdXEnhwu4Td7cQX12MfOHRxBCMW7LkcRkZDvJPbxZmU9HH0Cnfz2pRZVEkWC04e95ujeLI3gkfr43i+lMfK0zyePc5h+UEC6w+S2H1swH5GEngeor3qo71BktiN4JEYUKfgHkugE/g50+CAH4+IOgj2vN0mx3cJ9MKwoWkIXWD+zD7OX9mDYfHGR7yu7PDpg9/T6mYOd55NYns/HW8zoHj9ybAOfcmR0KXaccWioGXR/SNZ4WRo4JDN8xrcUEGTPu8dR8X9Rg6/2p/EX6/M4T88Po+/vXkev/31PO78zTie/Yc01v9GQ/lXPsofe9i97WH/YYDKAtBeoexh04e660GrOPH8BqVFhZcc5x5xniDEqewXbVMiDWHo8Pd9OM9sNLdd1ChrtnmwxhCf5jwgIBjJICil+7oTpmao1l/ogYncIWUcUcoCcmlMF1y8O72FM6Va9xnh6+AZ2Dy3Ys8zca8xhlvb43jxNIsX93NYeJDF2gML1Uca6s8Uyir8eD2e5mYAZyeAX6FjXqeMokWSsP24/4JHOfUrRRWEgYYTCzJFYkqFV8xQAmKglPZgDOmKFku1Aj4pT2GjZkLba0Kr92cioKYpxl+YoUXiKCIJSmf6jGLSH2yQOPIu3j6/hZlxaar6NlgcLgKsOkn8qnwGH63MYPV2Dhs3Mlh9YGLnvhJLo/k8iqVhr0cdaewHX0ijTcKIpUEZhGQPgtCB0wvKqr18BnuJCarTRpgfryI5pJ3ki3YBH7WmsUniMNca0Pf7MwFb1RQ1bgs7rDY+xfE7pqPC94U/hoem8hpPu76Jm81R/GJjFr++M4+bv5nB0i+S2PsVPXcL2HuioP2CXr1GmQSl2lrZhkI1iMimEo+YoOfYD+IIQfhG2jsR9u/SdbUcYscGqL5FVbXhI510MDu5h5mJfaQS/Vu1Q1UV7dCkwbAsVBHHN8JxnifC7XhWLI6/XT+DX96ex41fkzj+Non9X4bYuxWh/JRO+CXKRzbomO540Lt9FeDNijyfpEE/STILQfhW7O0QlbsB9mJxRKiROPwhvHTSSRtnJncxO75H4uhPMxWjpfTUX+hBp6nqMPo44kZF+kAmJm1ce6+C6bOkdyGGlxNf8VJYruTwfK2ERwtUHmawcd9E/YGG+iLQWvfh71KGUQ8os+Czmwqn23ySiyME4TvSWXYnNRJBK1iwdA2lpA9ryNawciIFvhLB3wpQuaWisdqfGeSq0m2qOjS4fd31ELlkOx6tI3zOPonjoZPHx9sT+OWDeXz80TQW/yaJrV8AWzcpw3gSwl/1KFtzoTS7o56kk1sQXhmed6Q2Hco4krh7YxbPn43Bto3us8NDTndxKVXGhWQFWa1/Gcfhj4/lphMOdhLw0Ag1bPgmHlcK+HhpBjfvjePRR1ksfJTEixsGtu8qaLEsljnL8BDUSbiUZfAaUJ0sQ1IMQegLcVyK0NoDdh5pWF82sdRIYtu34EbDM23AUkIUNQ9FvbOoY784miMUt73zbefL00qNxLFMJ+at3RH89ZNz+OjTaTz+6yyW/1bH5ichKg9JGEuUVexQdsHr53OWJsIVhEPD2Y9QfRKQOFQ8baSw6ifiXSqHBUMBsmqEDElD72PD0pEdIR5iSnVosnkQ3z9NrLUy+GR3Cp8tjuHhzTyefJrGws0EVm8bKD9Q0FyM4GzQ0dmnDKMV8DZeX+rLOOW2FYRDJHIowy97KC+pWLyTxv17JbpOJ3F7exxPmnmse0k0edHQ+L/Bg13B0/5YIP0M9oe+5MgBIzMOLn1Yxfg5Gxq9BZ7mfxrgk+3m/iT+cuMcFh6ksfGJgfV7CWw/0tF+EcBf9xBWSBY878LjORciCkE4MqhipnBWrymwHRPlRhbr9gi2wgzKpgbfCJHRPKQUD8oALk3Cfy3/3VsrFu79PoPNZavzxCtyZOJITYXIvR3BnFFgqQpSQ7qcMcN1E14qZKuRweJ+CTefjeCzh0WU71N2cT9CY1VFaxsIKj7Q4AyDjgUPHJDsQhCOHrruIqrM8u6WzZaJajuJRpOu0WYIt6EgaBhoOgnsBClUYSKKm33o2o1r8YMhkq1VczDFEY3rsK+m4E8lMKp7GDX6NxnlpMFNcU6g4PbmJH65eA6PbqWw9okC56kPfzmAVyZJ8D4Yjg8lIFmIMATheAlJEG0FblNBu6LGK0a3N0M0ti2UywWst0pYQA47hoWE1kZeb4FnwA1Ky8nWyoCKIyyYaJ/JQS+amE81MJMaruXVOfR3hAHs1FJY3s7j1uNxfHZ/FLsPIrQeuYi2fURVehXPx+BVaaVZShBOBPGC0B4l/o4CrxXBr3PfB13PFT3eNXO/kcC2baBOcjGbVOFrARU7g7Kbwb5voRKZ4E0neSczvtHiDWpOTsPW4IojacHNFZBO67gyso+54nCtWcXJrhMFqDkqHryYxKf35/D4dhqrt+hEfOFC2bKhcT8Gd3qLLwThRKKQQRSPik0CaJE8GgrsmoZmGWhyFrJFdb5tE+W9HBbrY1iwR7EUZLCuJOGRNAy9HXdCm2QMTkZOijoGVxyGCd9II5+McH1uB2cnh2OVXNIA3IiXPVexUzGxupHGvfsTuHtnDNuPeDFCqsbse9AaXmc+hkhDEE4uIW9/zC0CISKHvuQMpE3XeINKlUSyT0/RdV6rprBZJ2E0U9hr6Ci3NEQNHyoVu5mAbScpG6FMxU/E8UFVKUuhi7/TwX70DKw4WL+83ehoqo23XtvD3Bx9EkMAp6eVUMVmw8STJ6O499kUFm5nsX5Pg7PuItpz4t3y4r4MQRAGC7ps4yZljwI/ZSFoRggbKtpVDfWygsZOhNZmgNZqCHdVRXM1gc2dElbLY3jWLOGRW4KrhEibdRhqAJ3i4HF0qA+sOOImPxcYzdm4/lYZc+dbnScGFJ9qEa2IahqugY2yhaW1NJ7cHsXTmyPYfqqi9iJAWPWgtijTkL4MQRhMeOBKyKs3UOHRj5SFcCe601Rg1yO4lRDeLkljO4K3o6G1bWG3ksNWJY+VRhorrSQUz0Mm4iasCKpG2lBJHhQQj0ofHH02lwc14yA4gI6Mkjjer2Hu4mAvdsjSWPGSWChn8exeHguf0olyJ42dJzrsbT9eLkTmZQjCEMKXdMAy4f33KRNpU2nwXjgK3JqKFveJ7Kuo74VobEWIuHmLKpdOqCPKhVDNEBZZg/cFP2z4N/Cq2ZsD21TVeQcojjp4/XsNTF904s6jQZvc70UqGqGBLTuBp/sZPF3K4sWNLFZvZLC7oKO+SucU92fwdqwiDUEYPv4gC1F4lGQ7ijMRr6nCjjvU6aFyCIfkEVY12NUEApVyjqwP1SBpaNzvwc1WlIUcYurBLeS8Qu76ioUHH2ewNYgZB5Md9zH7QRvFC248FZ5HHwwS3Nl1v13Cnc0SFijDWPs0gd27BqqLVNugEyXgJUNCKjI3QxBOJfFMdM5GXN6Jk4rNw3tVeA4Jpamh4VuoJhPwTRUZzUdCpXhxSLRIGruBjhfLCTyhjGOPMo9+cOTiSI6FKL3tI30uQIoX3xqQvX69kFJQ38ByM4Mbe6O4t1DA+scWdm9QlvGcahmUkgZtOgF46XORhiCcTvja7zZj8dbNqh0gjEdlaXDa3IxloKGYqOUsRJaCrB4godHruPXlEJquKgHFLDeJhRcpLH2SQnWVq+uvzpGLA3kd/nwGfimNEcPDRPLk93Xwx7nZTuNmeQI3l8bw9FYS259paD2I4C6H8WSh0CEBykq2giB8FTzDMKDKJYU7z1HRbpFEHAMVI4W2bsbrYWV0r/vi/rHazuDj8iTuPyth56YOZ6P7xCty5OLw0wZqE0W4+RTmc3WcK5zciYAsDD9U4HgaFqoF/HJtFrcel7D1sYrarRDeEgljV6QhCMI30O0TCV2KJw01HpHVqmqo+ha2Mzl4SR3jiTYKhhtnHf3s81hs5PGLzTk8flKAcz8AtvvTLHbk4oh0DYGuI03p2ZWJMuaneSLgyVtzkhd/96IAG7UM7q5OkTDG8PhOCrt36MN/SmfApg80SRaeCEMQhJeEJcLFpezDo0qprcJzVdiUddiGiSTFxSwJpF8s7+Tx2ZNpbD5IQXnmQCn3J6s58kFNYSuCuxCiTfZzduk+1ehP0uAj/lO48Mogth9htZzC7xen8entcSz/nrKlmwG8Bd5siQp3hB+cCIIgCN9EN/OIqMIZbIWwn4So/j7Ci48t/O7pOH63M4WNdhp+pFJM7E9VOmxqcJcTcFctBM3+hfuj7+Ng6ADqFpU5Hc54EroaoWiejNVy2/SBlUMVKzsZPHk2jgd3R/Hsdga7jxX6AMjYe5ROxtu5SqYhCMJ3J1YDVU55VQnfVeIMxDM1tBMGLDWM9wt/VdaW07j3cR7lxxTs95tQbKrw9oEjFwdPAlRdsq6uoHomj/3xPCYSLZzNnIy1q6okje1AxbOlEm5/dgaPbxWwekdHY8HrLFTIczRk+RBBEF4RXrtObQWUFUTxpMGGY2A/n0Ern8Ck1cJM4tVXEF9fSOLBL9PYfwL6XSSiYED7OD7HUOGTWTXKNi4Vy7gQL3p4fH0dW34SC04OCytZLN7P4flnnZng+88V2FseoppHwpOl0AVB6D8cV7iEvC8IZR6hrsJJmPHs8lfJPNaeJ3DvozR2V1Twelv96hc4tonbQStC/UmE/U8itDfpgMX9BMcXlLe8BG61Srj5Ygy3fzOOJ7/NYfWWhuozH+G2A63pSvOUIAh9R/VCGGUPygsXjRs+Vj7S8fHCKH6xP4NVO9N91XeEMwzbAdq8yFb/4tfxZRycW5AnuH8jPUcinErEw9DyZv9GFLwML1o53KqN4f5iHgv30ti+ZaJ8T0djlTKN/RAhT+rjNaekA1wQhMPioN7MLUk834Pq9EGgwLQo2Gd4UUS60XofEbW22M041o2+xrBjE4dCb0JxeYVIyjjOZLA/WUDJco60r4MP483qBP5yZw7P7qax8VsNlXsaGs+UzhozLUrtRBqCIBwBcXMVzwlrRfFcj7atwSvqcMdN5DUXU2bvK4qvLVpfiKOPHN8agxSLecMUHp5bXtSw+pmByqYSz53gORSHBW/v6tIH9KKSw0dLZ3D3fhEvfm9SpqGi+Zg+sLUQXp3+BpteyZ3gIg1BEI6COCaSPNoU/7Z8+M987FJcevFpAtsbGuoUt9yXjEe8ga1NsdSJKMZ2H+snxyeOLoETobEQYff3Eepr/EZ9ytQOJ1jzT2Up2fQBPNkt4D8+PY87N4vY+kUUz89wF0kYuz4iHrLGM8FFGoIgHDG8da3GE/WWXFRvKlj7jY7tFQUVikn2S8Ykj17XJHG044p4/+PYMfZxHKDEIwnYtKNjHlIjKtlMQTbVac/rxzgr3nSpElJW4SawsZvG8moedx+O4f69AsqP6OA+86CQMBTKNHhctQhDEITjROE0geuuAcU/CoW5nA8rrcBSFBTSvA3tN1MJO/sFPX2WweLHadQ2+9tUdeziiPs6vAiaG0LNJtC0isgkPUyN1br7dby6OBxodBDTeNrKYWFhFI/uTuLp7TRWbmnwXrhQN22olB7G8zNEGoIgnASowqu4FCNtioG6BRtZlNIeZicb9OA3V6nXSRr37SKJI4fNGxbaW/1tXDoBGQfbleRB8Tq06A1GSZhmCD3DjylIW2TXHt1BeQMc+nl1X8dGI4OlvQKerpF5F1NYuZ/F2v00dheA5pJPavag8fauLA1BEISTAockDmZUIs2A41uwcuSQEZYAxUbj62PjUjuHG/sTWHySRf2WCn+nv/HtRIijgwI/0NFuGHB1ExU9jxRJY7LQgErHqRd3UAKDKqV5620L9zam8dniNJ7fT2L9Mx07DyzsP9XhbLqIyo5M6hME4YRDsdHXYLcoPuaS2C3kSRoeZrIUG79mD4+n1RJ+uz6H5UcZeA89YJ8N1D9Ojjjo/QeBCo/SMk/T0QiTsMwAVpaeIGskya5ft9xwRP9xk2CTMoxNO4PVegYb2yaWV9J4+HQUTx/nsf8IqD2O0FxTYW/T6xseVJsyDZGGIAgnGQpRod9ZRddJGajqKWTTDgqjTjy8ide1+sPQ+GynhI+fzWLnsQV1oQ212vsckG/iBGUc5AcO4n5IdlXRqmtwDTpIiRwJJMRktgn9a3YL5EfjJdCdJG6UKcNYHcfqgzRWb6fw4n4G2480OM89+OsBghq9mjeX5xmV0p8hCMIgwLEqDDs7kTZ1GCWKZbMqTIqJJd2B9geZx4vVEm7fnUL1iQZttQm1OcTiiA9OEJE4FDhNMiyJo6amSBw+MrzJuwY6ULzNIucYFP9DLd4DfK9lYa9s4vlmHjeXxvHkaQ7l+zoqD3XsL2lorNPrd31KOQJELomDp96LNARBGBRicUTwAhVukwJ3ge4XdBR1G7MZqlTHWccXeceLF3ncvTGK6jMF2m4TijPM4jiA4rrqB/ADBa2GBk/XUElnoOkRRlMtkocfH0demPBeewSPt0pYelLEwv0Cnt1PYee+BvtpBHs1gstte3XKMFy65YxGhCEIwoDCg3jifllVgW0bmEw1cG66AlMPqULN6ujIY/lZGg8+yqL6nIRSt+M90PvJiRRHPMoqbrKizIO3WuQmKzMN0wyQz7hwfR31tonF/RzukDQWF3PYvJ/GxsMktp8qaCyFCDZDhGUqbd40nsQhfRmCIAw48cxyj+JbRJXjpo7RooORaRcUIpHQqcLdTTqWnyTx4DdpVFco7nG2wROa+8jJzDi6cLMd25VHytrcdKVpqKWTWK0XsLRewtOnOSzctbB9T0ftsUbCoAxjqzPEVuXFCdmykmEIgjBkcGyMWoCeM9DO5kgcCsaydpx5MEuPE7j3uxTKG2SSQ4iDJ1scsV0D+J6Cdl1FWzdQSaWxvZfB1nIa609IGg+A+tMI7VUF7k6IqMrS4M5v6ccQBGE4iXwSQitCkE6gauaRyQSYHG9CMSJ4kYoXjxJ4QOKo8MS/Q4iDJ1ocn0PvmzOPiFxgt0kgq3TMXnDx4a56CPcoy2iSVeN+DBGGIAinAIpzoabDcQxYRRf6mQANU0M11LFIGcezj1Oo72inVxxxh5BDmYeLOPOwNwFnncy65SPadaGINARBOIV4Pk+a1qCNUOybU9BQddQ8A2tPElj91EB7r79LjRwwGBnHl+D9ytWWD63tk0y8zq580vEtCMKppDOQSEsAvmKgWktht57DFmUc5XsKvGr3ZX1GKSXGooSdwbRyDgWMdB8WBEEQBgXznAnzoglllgwymYS3YMP9ZRXh1uHsqHo4eYwgCIJwZATVEO6LAM5DH+3bHtznPqL24bXEiDgEQRAGHF5KyVv2YT/x0L7nwqX7oS3iEARBEL6OMEIUhFDaHrSaDbXpdpZWOiREHIIgCIMOjyYNAii2C7XWhtpyO3PZDgkRhyAIwjDBEjnkaQkiDkEQBKEnRByCIAhCT4g4BEEQhJ4QcQiCIAg9IeIQBEEQekLEIQiCIPSEiEMQBEHoCRGHIAiC0BMiDkEQBKEnRByCIAhCT4g4BEEQhJ4QcQiCIAg9IeIQBEEQekLEIQiCIPSEiEMQBEHoCRGHIAiC0BMiDkEQBKEnRByCIAhCT4g4BEEQhJ4QcQiCIAg9IeIQBEEQekLEIQiCIPSEiEMQBEHoCRGHIAiC0BMiDkEQBKEnRByCIAhCT4g4BEEQhJ4QcQiCIAg9IeIQBEEQekLEIQiCIPSEiEMQBEHoCRGHIAiC0BMiDkEQBKEnRByCIAhCT4g4BEEQhJ4QcQiCIAg9IeIQBEEQekLEIQiCIPSEiEMQBEHoCRGHIAiC0BNqhIhuuAiCIAjCt6MGYYBQ5CEIgiC8JGpI4mBpiDYEQRCEl0FVFCW+0/lXEARBEL4ZEgf3j4s2BEEQhJdDVUkcSiwOkYcgCILw7XxJHIIgCILw7cg8DkEQBKEnRByCIAhCT4g4BEEQhJ4QcQiCIAg9IeIQBEEQekLEIQiCIPSEiEMQBEHoCRGHIAiC0BMiDkEQBKEnRByCIAhCT4g4BEEQhJ4QcQiCIAg9IeIQBEEQekLEIQiCIPSEiEMQBEHoCRGHIAiC0BMiDkEQBKEnRByCIAhCT4g4BEEQhJ4QcQiCIAg9IeIQBEEQekLEIQiCIPSEiEMQBEHoCRGHIAiC0BMiDkEQBKEnRByCIAhCT4g4BEEQhJ4QcQiCIAg9IeIQBEEQekLEIQiCIPSEiEMQBEHoCRGHIAiC0BMiDkEQBKEnRByCIAhCT4g4BEEQhJ4QcQiCIAg9IeIQBEEQekLEIQiCIPSEiEMQBEHoCRGHIAiC0BMiDkEQBKEnRByCIAhCT4g4BEEQhJ5QionRyLJTmFTOIIdS92FBGFYiKkrnriAI3wklnyxGmm2gpIwjpWS6DwuHCsWuz8OXxLCjIz7uER1yOuhy3I8OOd+PHj7gB/T9mAP/P3tsTx4W+R2oAAAAAElFTkSuQmCC;" vertex="1" parent="1">
                    <mxGeometry x="350" y="303.55" width="64" height="52.9" as="geometry"/>
                </mxCell>
                <mxCell id="31" value="" style="rounded=0;whiteSpace=wrap;html=1;fillColor=#e51400;fontColor=#ffffff;strokeColor=#B20000;" vertex="1" parent="1">
                    <mxGeometry x="270" y="680" width="20" height="60" as="geometry"/>
                </mxCell>
                <mxCell id="32" value="" style="rounded=0;whiteSpace=wrap;html=1;fillColor=#fa6800;fontColor=#000000;strokeColor=#C73500;" vertex="1" parent="1">
                    <mxGeometry x="160" y="740" width="20" height="60" as="geometry"/>
                </mxCell>
                <mxCell id="33" value="" style="rounded=0;whiteSpace=wrap;html=1;fillColor=#fa6800;fontColor=#000000;strokeColor=#C73500;" vertex="1" parent="1">
                    <mxGeometry x="190" y="740" width="20" height="60" as="geometry"/>
                </mxCell>
                <mxCell id="34" value="" style="endArrow=classic;html=1;" edge="1" parent="1">
                    <mxGeometry width="50" height="50" relative="1" as="geometry">
                        <mxPoint x="150" y="770" as="sourcePoint"/>
                        <mxPoint x="320" y="710" as="targetPoint"/>
                        <Array as="points">
                            <mxPoint x="240" y="770"/>
                            <mxPoint x="240" y="710"/>
                        </Array>
                    </mxGeometry>
                </mxCell>
                <mxCell id="35" value="Encoder" style="text;html=1;strokeColor=none;fillColor=none;align=center;verticalAlign=middle;whiteSpace=wrap;rounded=0;" vertex="1" parent="1">
                    <mxGeometry x="150" y="690" width="70" height="30" as="geometry"/>
                </mxCell>
                <mxCell id="36" value="TD" style="rounded=0;whiteSpace=wrap;html=1;" vertex="1" parent="1">
                    <mxGeometry x="320" y="700" width="20" height="20" as="geometry"/>
                </mxCell>
                <mxCell id="37" value="" style="rounded=0;whiteSpace=wrap;html=1;fillColor=#e3c800;fontColor=#000000;strokeColor=#B09500;" vertex="1" parent="1">
                    <mxGeometry x="270" y="780" width="20" height="70" as="geometry"/>
                </mxCell>
                <mxCell id="38" value="" style="endArrow=classic;html=1;" edge="1" parent="1">
                    <mxGeometry width="50" height="50" relative="1" as="geometry">
                        <mxPoint x="150" y="770" as="sourcePoint"/>
                        <mxPoint x="320" y="820" as="targetPoint"/>
                        <Array as="points">
                            <mxPoint x="240" y="770"/>
                            <mxPoint x="240" y="820"/>
                        </Array>
                    </mxGeometry>
                </mxCell>
                <mxCell id="39" value="PD" style="rounded=0;whiteSpace=wrap;html=1;" vertex="1" parent="1">
                    <mxGeometry x="320" y="810" width="20" height="20" as="geometry"/>
                </mxCell>
                <mxCell id="40" value="" style="rounded=0;whiteSpace=wrap;html=1;fillColor=#fa6800;fontColor=#000000;strokeColor=#C73500;" vertex="1" parent="1">
                    <mxGeometry x="160" y="980" width="20" height="60" as="geometry"/>
                </mxCell>
            </root>
        </mxGraphModel>
    </diagram>
</mxfile>